<?xml version="1.0" standalone="no"?><!DOCTYPE svg PUBLIC "-//W3C//DTD SVG 1.1//EN" "http://www.w3.org/Graphics/SVG/1.1/DTD/svg11.dtd"><svg t="1621245891187" class="icon" viewBox="0 0 1024 1024" version="1.1" xmlns="http://www.w3.org/2000/svg" p-id="1851" xmlns:xlink="http://www.w3.org/1999/xlink" width="200" height="200"><defs><style type="text/css"></style></defs><path d="M258.078335 510.662539c0 31.087019 26.602891 53.593616 44.710294 71.314209 29.092595 28.448936 33.211403 39.948851 58.184167 68.332295l184.378288 184.700629c24.459065 27.740808 29.650297 40.485063 57.928341 68.611657 23.813359 23.685445 40.032762 39.111786 63.375399 63.205531 27.805276 28.705785 32.137954 46.319955 76.506465 50.009997 45.482891-94.785783-24.928762-125.144208-160.820756-260.993223L352.993055 510.662539c46.77021-69.877487 411.239132-398.022109 411.239132-453.460746 0-17.84953-14.032598-39.411615-21.069875-52.713572-43.552935 3.625574-44.323485 16.434298-71.357188 44.62536L366.165052 365.651864C332.567863 399.271566 258.078335 454.40935 258.078335 510.662539z" p-id="1852"></path></svg>