<?xml version="1.0" standalone="no"?><!DOCTYPE svg PUBLIC "-//W3C//DTD SVG 1.1//EN" "http://www.w3.org/Graphics/SVG/1.1/DTD/svg11.dtd"><svg t="1621997627083" class="icon" viewBox="0 0 1024 1024" version="1.1" xmlns="http://www.w3.org/2000/svg" p-id="10487" xmlns:xlink="http://www.w3.org/1999/xlink" width="200" height="200"><defs><style type="text/css"></style></defs><path d="M381.2 784c-54.1 0-97.9 43.8-97.9 97.9 0 54 43.9 98 97.9 98s97.9-43.9 97.9-98c-0.1-54-43.9-97.8-97.9-97.9z m0 130.6c-17.5-0.8-31.3-15.2-31.3-32.7 0-17.5 13.8-31.9 31.3-32.7 17.5 0.8 31.3 15.2 31.3 32.7 0 17.5-13.8 31.9-31.3 32.7z m592.5-354.7c49.9-285.5 49.9-286.5 49.9-287.8-0.1-54.1-43.9-97.9-98-97.9H203l-11.6-60.7C179.3 72 141.2 43.4 98 43.5H32.7c-8.7 0-17 3.4-23.1 9.5C3.5 59.1 0 67.4 0 76.1c0 18 14.6 32.6 32.7 32.6h65.2c15.6 0 28.7 10.6 31.9 25.4l95.8 543.2c0.5 3.4 2.8 13.2 2.9 13.6 11.2 39.7 46.1 68.1 87.2 71.2h609.7c17.4-0.8 31.1-15.1 31.1-32.6 0-17.4-13.7-31.8-31.1-32.6H322.3c-14.1 0.1-26.7-9-31-22.4l-7.5-43h596.1c42.9-0.1 81.3-29 93.8-71.6z m-93.9 6.2H272.3l-57.6-326.7h710.9c18 0 32.7 14.7 32.7 32.3-0.8 9.7-29 168.4-47.4 271.4-4.2 13.7-16.8 23-31.1 23zM838.4 784c-54.1 0-97.9 43.8-97.9 97.9 0 54 43.9 98 97.9 98 54 0 97.9-43.9 97.9-98s-43.8-97.8-97.9-97.9z m0 130.6c-17.5-0.8-31.3-15.2-31.3-32.7 0-17.5 13.8-31.9 31.3-32.7 17.5 0.8 31.3 15.2 31.3 32.7 0 17.5-13.8 31.9-31.3 32.7z m0 0" p-id="10488"></path></svg>