<?xml version="1.0" standalone="no"?><!DOCTYPE svg PUBLIC "-//W3C//DTD SVG 1.1//EN" "http://www.w3.org/Graphics/SVG/1.1/DTD/svg11.dtd"><svg t="1622196068069" class="icon" viewBox="0 0 1024 1024" version="1.1" xmlns="http://www.w3.org/2000/svg" p-id="25243" xmlns:xlink="http://www.w3.org/1999/xlink" width="200" height="200"><defs><style type="text/css"></style></defs><path d="M981.503787 879.338379c-0.409988-2.63692-10.469683-65.73901-50.379475-147.937521a663.920901 663.920901 0 0 0-85.757404-133.499959 643.185529 643.185529 0 0 0-145.659591-129.48108 118.712406 118.712406 0 0 1-26.213206-34.916943 105.483807 105.483807 0 0 1-10.393685-34.763947l0.690979-0.639981-0.844975-0.869973c-2.073937-20.377383 1.868943-41.726737 11.852642-63.844068 46.872581-103.804857 84.451443-226.399146 82.071515-267.741894l-1.253962-21.375353L585.483775 0.388988 575.449079 23.249296C564.8514 47.414565 532.954366 97.691043 502.158298 98.997003h-1.202964c-23.141299 0-50.891459-27.596165-78.28263-78.000639L411.307048 0.029999 243.658124 50.256479l0.537983 22.399321c0.101997 4.121875 3.020909 102.089909 53.041395 208.070701 22.425321 47.486562 39.678799 86.602378 41.163753 121.417325 0.99797 23.167299-3.506894 55.729313-47.358566 102.114908-18.50844 19.557408-39.806795 37.502865-62.360112 56.49729-39.422807 33.201995-80.176573 67.530956-114.838523 117.039457-39.704798 56.676284-63.486078 123.234269-72.6758 203.436841L41.014258 882.640279v1.433957c-0.101997 4.505864 0.716978 28.031151 24.421261 49.918489 34.814946 32.153027 100.962944 43.774675 196.525051 34.456957 31.359051-3.045908 45.310628 4.146874 68.34993 16.025515 32.281023 16.690495 76.541683 39.524803 180.730529 39.524803 85.859401 0 149.243482-48.510531 164.757012-61.617135 11.161662-4.761856 68.579924-24.985244 175.40569 10.137693 40.804765 13.413594 68.656922 3.839884 84.861431-6.5788 38.449836-24.677253 44.977638-73.367779 45.566621-78.845613l0.460986-3.890883-0.588982-3.866883z" p-id="25244"></path></svg>