<?xml version="1.0" standalone="no"?><!DOCTYPE svg PUBLIC "-//W3C//DTD SVG 1.1//EN" "http://www.w3.org/Graphics/SVG/1.1/DTD/svg11.dtd"><svg t="1622280848242" class="icon" viewBox="0 0 1024 1024" version="1.1" xmlns="http://www.w3.org/2000/svg" p-id="2381" xmlns:xlink="http://www.w3.org/1999/xlink" width="200" height="200"><defs><style type="text/css"></style></defs><path d="M754.534264 192.10871c27.12689 0 48.623671-21.496781 48.623671-48.026538V48.029097A48.197147 48.197147 0 0 0 754.534264 0.002559a48.197147 48.197147 0 0 0-48.62367 48.026538v96.053075a48.879585 48.879585 0 0 0 48.62367 48.026538z m-242.435915 0c26.529757 0 48.623671-21.496781 48.623671-48.026538V48.029097A48.197147 48.197147 0 0 0 512.098349 0.002559c-26.444452 0-48.623671 21.496781-48.62367 48.026538v96.053075a48.879585 48.879585 0 0 0 48.62367 48.026538z m-242.435915 0c27.041585 0 48.623671-21.496781 48.62367-48.026538V48.029097A48.197147 48.197147 0 0 0 269.577129 0.002559a48.197147 48.197147 0 0 0-48.62367 48.026538v96.053075a48.879585 48.879585 0 0 0 48.62367 48.026538z m662.817404-95.541247h-80.698232v48.026538c0 53.059514-43.590694 96.053076-97.247342 96.053075-53.571342 0-97.162036-42.993561-97.162036-96.053075v-48.026538h-48.026538v48.026538c0 53.059514-43.675999 96.053076-97.247341 96.053075-53.571342 0-97.247341-42.993561-97.247341-96.053075v-48.026538h-48.538366v48.026538c0 53.059514-43.590694 96.053076-97.247341 96.053075-53.571342 0-97.162036-42.993561-97.162036-96.053075v-48.026538H91.290337a48.197147 48.197147 0 0 0-48.62367 48.026538v831.038243c0 26.529757 21.582085 48.026538 48.62367 48.026537h841.104196c27.041585 0 48.623671-21.496781 48.623671-48.026537V144.594001a48.197147 48.197147 0 0 0-48.623671-48.026538zM258.65813 472.163992h273.828039a45.893921 45.893921 0 0 1 0 91.873146h-273.828039a45.893921 45.893921 0 0 1 0-91.873146z m0 247.212977h506.198001a45.893921 45.893921 0 0 1 0 91.873146H258.743434a45.893921 45.893921 0 0 1 0-91.873146z" p-id="2382"></path></svg>