<?xml version="1.0" standalone="no"?><!DOCTYPE svg PUBLIC "-//W3C//DTD SVG 1.1//EN" "http://www.w3.org/Graphics/SVG/1.1/DTD/svg11.dtd"><svg t="1621997716600" class="icon" viewBox="0 0 1412 1024" version="1.1" xmlns="http://www.w3.org/2000/svg" p-id="18777" xmlns:xlink="http://www.w3.org/1999/xlink" width="275.78125" height="200"><defs><style type="text/css"></style></defs><path d="M705.228 992c-4.837 0-8.857-0.045-12.648-0.146-200.738-5.025-351.041-117.891-357.342-122.693l-10.642-8.176v-358.52l-292.597-145.1L688.15 32l667.167 317.435-312.893 156.457V864.34l-8.759 8.095c-5.284 4.882-131.642 119.566-328.437 119.566zM379.103 833.47l5.322 3.484c44.261 28.96 163.026 96.717 309.534 100.376 3.327 0.079 6.749 0.117 10.172 0.117 145.315 0 250.427-72.031 279.181-94.108l4.599-3.531V533.146L688.442 682.894l-309.339-153.4v303.975zM154.702 357.365l533.632 264.629 542.695-271.331L688.618 92.569 154.701 357.364zM66.098 571.54h54.504v273.991H66.098V571.54z" p-id="18778"></path><path d="M747.393 238.582l6.768-13.901 178.831 87.234-6.774 13.903zM1018.458 355.689l-6.93 13.86-17.972-8.986 6.93-13.86 17.972 8.986z" p-id="18779"></path></svg>