<?xml version="1.0" standalone="no"?><!DOCTYPE svg PUBLIC "-//W3C//DTD SVG 1.1//EN" "http://www.w3.org/Graphics/SVG/1.1/DTD/svg11.dtd"><svg t="1621997683615" class="icon" viewBox="0 0 1024 1024" version="1.1" xmlns="http://www.w3.org/2000/svg" p-id="14618" xmlns:xlink="http://www.w3.org/1999/xlink" width="200" height="200"><defs><style type="text/css"></style></defs><path d="M625.92 128c-149.12 0-270.08 120.96-270.08 270.08 0 30.72 5.12 60.16 14.72 87.68l-161.28 161.28c-38.4 38.4-44.8 97.28-19.2 142.72l-51.84 51.84c-12.8 12.8-12.8 32.64 0 45.44 6.4 6.4 14.72 9.6 22.4 9.6s16.64-3.2 22.4-9.6l51.84-51.84c17.92 10.24 38.4 15.36 58.24 15.36 30.72 0 60.8-11.52 84.48-34.56l161.28-161.28c27.52 9.6 56.96 14.72 87.68 14.72 149.12 0 270.08-120.96 270.08-270.08C896 248.96 775.04 128 625.92 128zM331.52 769.92c-21.76 21.76-56.32 21.76-78.08 0-21.76-21.76-21.76-56.32 0-78.08l145.92-145.92c20.48 30.72 46.72 57.6 78.08 78.08L331.52 769.92zM419.2 398.08c0-18.56 2.56-37.12 7.04-54.4l253.44 253.44c-17.28 4.48-35.2 7.04-54.4 7.04C512 604.8 419.2 512 419.2 398.08zM741.76 568.96 455.04 282.24C492.16 227.84 554.88 192 625.92 192c113.92 0 206.08 92.8 206.08 206.08C832 469.12 796.16 531.84 741.76 568.96z" p-id="14619"></path></svg>