<?xml version="1.0" standalone="no"?><!DOCTYPE svg PUBLIC "-//W3C//DTD SVG 1.1//EN" "http://www.w3.org/Graphics/SVG/1.1/DTD/svg11.dtd"><svg t="1621997527908" class="icon" viewBox="0 0 1024 1024" version="1.1" xmlns="http://www.w3.org/2000/svg" p-id="2356" xmlns:xlink="http://www.w3.org/1999/xlink" width="200" height="200"><defs><style type="text/css"></style></defs><path d="M969.9328 914.978133l-25.531733-737.962666c0-66.082133-57.1392-119.6032-127.658667-119.6032H203.912533c-70.519467 0-127.658667 53.521067-127.658666 119.6032l-25.6 737.962666H139.264c-0.682667 3.413333-1.092267 6.826667-1.092267 10.376534v24.302933c0 30.651733 24.849067 55.432533 55.5008 55.432533h79.735467a55.5008 55.5008 0 0 0 55.5008-55.432533v-24.302933a55.5008 55.5008 0 0 0-1.092267-10.376534H692.906667c-0.682667 3.413333-1.024 6.826667-1.024 10.376534v24.302933c0 30.651733 24.849067 55.432533 55.432533 55.432533h79.803733a55.5008 55.5008 0 0 0 55.432534-55.432533v-24.302933a55.5008 55.5008 0 0 0-1.024-10.376534h88.4736zM208.213333 799.402667a70.109867 70.109867 0 1 1 0-140.219734 70.109867 70.109867 0 0 1 0 140.219734z m-49.629866-254.498134l9.557333-302.967466c0-66.833067 24.302933-93.252267 85.8112-93.252267h512.4096c61.44 0 85.8112 26.4192 85.8112 93.252267l9.8304 302.967466H158.583467z m653.789866 254.498134a70.109867 70.109867 0 1 1 0-140.219734 70.109867 70.109867 0 0 1 0 140.219734z" p-id="2357"></path></svg>