<?xml version="1.0" standalone="no"?><!DOCTYPE svg PUBLIC "-//W3C//DTD SVG 1.1//EN" "http://www.w3.org/Graphics/SVG/1.1/DTD/svg11.dtd"><svg t="1621997701603" class="icon" viewBox="0 0 1024 1024" version="1.1" xmlns="http://www.w3.org/2000/svg" p-id="16721" xmlns:xlink="http://www.w3.org/1999/xlink" width="200" height="200"><defs><style type="text/css"></style></defs><path d="M845.823971 344.946286c30.611182 0 55.480592 24.869411 55.480593 55.480593v443.841667c0 30.611182-24.869411 55.480592-55.480593 55.480592h-665.763012c-30.585599 0-55.480592-24.869411-55.480592-55.480592V400.426879c0-30.611182 24.894993-55.480592 55.480592-55.480593h665.763012m0-55.479568h-665.763012c-61.277622 0-110.960161 49.682539-110.960161 110.960161v443.841667c0 61.277622 49.682539 110.960161 110.960161 110.960161h665.763012c61.277622 0 110.960161-49.682539 110.960161-110.960161V400.426879c0-61.277622-49.682539-110.960161-110.960161-110.960161z m-499.322259-55.480593v-55.480592c0-30.55797 24.894993-55.480592 55.480592-55.480592H623.903649c30.611182 0 55.480592 24.922622 55.480592 55.480592v55.480592h55.480593v-55.480592c0-61.277622-49.682539-110.960161-110.960161-110.960161H401.982304c-61.277622 0-110.960161 49.682539-110.960161 110.960161v55.480592h55.479569z m332.881506 332.881507H568.423057V455.907471H457.462896v110.960161H346.501712v110.960161H457.462896V788.787954h110.960161V677.827793h110.960161V566.867632z" p-id="16722"></path></svg>