<?xml version="1.0" standalone="no"?><!DOCTYPE svg PUBLIC "-//W3C//DTD SVG 1.1//EN" "http://www.w3.org/Graphics/SVG/1.1/DTD/svg11.dtd"><svg t="1622195742320" class="icon" viewBox="0 0 1024 1024" version="1.1" xmlns="http://www.w3.org/2000/svg" p-id="2354" xmlns:xlink="http://www.w3.org/1999/xlink" width="200" height="200"><defs><style type="text/css"></style></defs><path d="M817.21856 596.32128c0-18.88256-6.29248-35.06176-19.77344-49.44896L411.76064 162.08896c-13.48608-13.48608-32.36864-25.17504-54.84544-35.06688C333.5424 117.13536 312.86272 112.64 293.98016 112.64H69.22752c-18.88256 0-35.06176 7.1936-48.54784 20.67968C7.1936 146.80576 0 162.98496 0 181.86752v223.85664c0 18.88256 4.49536 40.45824 14.38208 62.93504 9.89184 23.3728 20.67968 41.35936 35.06688 54.84544l385.68448 385.68448c13.48096 13.4912 29.6704 19.77856 48.54784 19.77856 18.87744 0 35.06176-6.29248 49.44896-19.77856l264.31488-264.31488c12.59008-13.4912 19.77344-29.67552 19.77344-48.55296zM221.1584 334.69952c-13.48096 13.48608-29.66016 19.77856-48.54272 19.77856-18.88256 0-35.06176-6.29248-48.54784-19.77856-13.48608-13.48096-19.78368-29.66528-19.78368-48.54784 0-18.88256 6.2976-35.06176 19.78368-48.54784 13.48608-13.48608 29.66528-19.77856 48.54784-19.77856 18.88256 0 35.06176 6.29248 48.54272 19.77856 13.4912 13.48608 19.77856 29.66528 19.77856 48.54784 0.90112 18.88256-6.28736 35.06688-19.77856 48.54784z m783.06304 212.1728l-385.68448-384.78336c-13.48096-13.48608-32.36864-25.17504-54.84032-35.06688C540.31872 117.13536 519.64416 112.64 500.7616 112.64H379.392c18.88256 0 40.45824 4.49536 62.93504 14.38208 23.3728 9.89184 41.35424 20.67968 54.8352 35.06688l385.68448 384.78336c13.4912 14.39232 19.77856 30.57152 19.77856 49.44896s-6.29248 35.06688-19.77856 48.54784l-252.62592 253.53216c10.78784 10.78272 20.67968 18.88256 28.76416 24.27392 8.09472 5.39136 18.88256 7.18336 31.46752 7.18336 18.88256 0 35.06688-6.29248 49.44896-19.77344l264.31488-265.216c13.48608-13.48608 19.77856-29.6704 19.77856-48.54784s-6.28736-35.06176-19.77344-49.44896z" p-id="2355"></path></svg>