<?xml version="1.0" standalone="no"?><!DOCTYPE svg PUBLIC "-//W3C//DTD SVG 1.1//EN" "http://www.w3.org/Graphics/SVG/1.1/DTD/svg11.dtd"><svg t="1621997927465" class="icon" viewBox="0 0 1024 1024" version="1.1" xmlns="http://www.w3.org/2000/svg" p-id="28413" xmlns:xlink="http://www.w3.org/1999/xlink" width="200" height="200"><defs><style type="text/css"></style></defs><path d="M107.4176 512c0 46.2848 37.5808 83.8656 83.8656 83.8656s83.8656-37.5808 83.8656-83.8656-37.5808-83.8656-83.8656-83.8656-83.8656 37.5808-83.8656 83.8656z m0 0M427.2128 512c0 46.2848 37.5808 83.8656 83.8656 83.8656S594.944 558.2848 594.944 512s-37.5808-83.8656-83.8656-83.8656-83.8656 37.5808-83.8656 83.8656z m0 0M747.008 512c0 30.0032 15.9744 57.6512 41.984 72.6016 25.9072 14.9504 57.9584 14.9504 83.8656 0 25.9072-14.9504 41.984-42.7008 41.984-72.6016 0-30.0032-15.9744-57.6512-41.984-72.6016-25.9072-14.9504-57.9584-14.9504-83.8656 0-26.0096 14.9504-41.984 42.5984-41.984 72.6016z m0 0" p-id="28414"></path></svg>