<?xml version="1.0" standalone="no"?><!DOCTYPE svg PUBLIC "-//W3C//DTD SVG 1.1//EN" "http://www.w3.org/Graphics/SVG/1.1/DTD/svg11.dtd"><svg t="1621997758522" class="icon" viewBox="0 0 1024 1024" version="1.1" xmlns="http://www.w3.org/2000/svg" p-id="20889" xmlns:xlink="http://www.w3.org/1999/xlink" width="200" height="200"><defs><style type="text/css"></style></defs><path d="M831.723 978.49h-575.842c-70.667 0-127.956-57.293-127.956-127.964v-639.79l383.89 127.964h63.977l383.897-127.964v639.79c0 70.671-57.295 127.964-127.964 127.964zM577.351 656.578l92.863-0.224c23.258 0.224 31.543-11.837 31.971-26.373 0.358-12.61-11.556-36.372-32.534-36.941h-92.831v-22.393c0 0 70.463-71.964 88.749-88.547 18.228-16.66 22.835-29.706 11.568-43.179-11.421-13.749-31.556-12.898-46.297-0.697-14.959 12.399-86.919 79.251-86.919 79.251s-61.774-63.794-75.147-76.627c-12.009-11.561-37.5-22.763-51.218-7.236-14.313 16.233-3.187 36.506 5.778 45.374 8.938 8.784 86.241 90.518 86.241 90.518l-0.141 24.593c0 0-82.549 0-96.868 0s-26.967 25.476-26.514 39.015c0.46 13.468 11.306 24.030 26.482 24.030 15.17 0 96.581-0.563 96.581-0.563l-0.211 68.592c0 0-86.017 0-100.336 0s-26.335 14.42-26.911 27.959c-0.563 13.543 10.704 31.893 26.911 31.893 16.233 0 100.118 0 100.118 0s-0.173 23.468 0.429 33.243c1.35 21.829 15.67 30.762 34.806 31.12 19.143 0.364 32.727-15.657 32.682-29.981-0.065-11.837-0.346-34.382-0.346-34.382s83.323-0.147 99.063 0c15.739 0.134 27.506-15.797 26.866-31.893-0.563-16.161-10.346-28.522-34.236-28.522-23.897 0-91.129 0-91.129 0l0.531-68.031zM575.79 274.714h-63.975l-383.89-127.951c0-70.678 57.289-127.958 127.956-127.958h575.842c70.667 0 127.964 57.281 127.964 127.958l-383.897 127.951z" p-id="20890"></path></svg>