<?xml version="1.0" standalone="no"?><!DOCTYPE svg PUBLIC "-//W3C//DTD SVG 1.1//EN" "http://www.w3.org/Graphics/SVG/1.1/DTD/svg11.dtd"><svg t="1620907290130" class="icon" viewBox="0 0 1024 1024" version="1.1" xmlns="http://www.w3.org/2000/svg" p-id="1921" xmlns:xlink="http://www.w3.org/1999/xlink" width="200" height="200"><defs><style type="text/css"></style></defs><path d="M615.322523 379.525766l-138.083172 138.083171a16.605405 16.605405 0 0 1-23.468973 0l-73.801801-73.801802a22.694054 22.694054 0 1 0-32.103784 32.103784l81.366486 81.292685a51.292252 51.292252 0 0 0 72.620973 0l145.574054-145.574054a22.694054 22.694054 0 1 0-32.103783-32.103784z" p-id="1922"></path><path d="M734.641586 158.673874H243.232288C205.704072 158.673874 175.279279 190.88836 175.279279 230.630631v572.849585c0 58.783135 59.982414 95.610234 108.174991 66.421622l185.666883-112.547748a37.989477 37.989477 0 0 1 39.631568 0l185.685333 112.547748c48.174126 29.188613 108.156541-7.638486 108.156541-66.421622V230.630631c0-39.74227-30.424793-71.956757-67.953009-71.956757z m24.391495 636.392937c0 26.421045-26.919207 43.008-48.616937 29.963531L525.837838 714.032432a71.108036 71.108036 0 0 0-73.801802 0l-184.504504 110.99791c-21.69773 13.044468-48.616937-3.542486-48.616937-29.963531V237.401946c0-18.00764 13.782486-32.601946 30.793801-32.601946H728.239279c17.011315 0 30.793802 14.594306 30.793802 32.601946z" p-id="1923"></path></svg>