<?xml version="1.0" standalone="no"?><!DOCTYPE svg PUBLIC "-//W3C//DTD SVG 1.1//EN" "http://www.w3.org/Graphics/SVG/1.1/DTD/svg11.dtd"><svg t="1622195946220" class="icon" viewBox="0 0 1024 1024" version="1.1" xmlns="http://www.w3.org/2000/svg" p-id="12659" xmlns:xlink="http://www.w3.org/1999/xlink" width="200" height="200"><defs><style type="text/css"></style></defs><path d="M547.663448 16.878345a52.082759 52.082759 0 0 0-71.291586-0.141242C347.771586 137.498483 98.198069 361.860414 98.198069 612.281379c0 225.915586 185.273379 409.070345 413.801931 409.070345 228.528552 0 413.766621-183.154759 413.766621-409.070345 0-251.197793-246.324966-471.463724-378.067862-595.367724zM653.241379 575.876414l-156.601379 216.734896c-9.745655 13.523862-31.320276 6.708966-31.320276-9.886896V647.944828a17.160828 17.160828 0 0 0-17.266758-17.090207H384.812138a17.160828 17.160828 0 0 1-17.266759-17.054897c0-3.531034 1.129931-7.026759 3.177931-9.886896l156.63669-216.770207c9.745655-13.488552 31.320276-6.708966 31.320276 9.922207v134.708965c0 9.427862 7.697655 17.090207 17.231448 17.090207h63.276138c14.053517 0 22.210207 15.677793 14.053517 26.977103z" p-id="12660"></path></svg>